<svg width="80" height="81" viewBox="0 0 80 81" fill="none" xmlns="http://www.w3.org/2000/svg">
<g clip-path="url(#clip0_260_5902)">
<path d="M51.6667 47.1667H49.0333L48.1 46.2667C51.3667 42.4667 53.3333 37.5333 53.3333 32.1667C53.3333 20.2 43.6333 10.5 31.6667 10.5C19.7 10.5 10 20.2 10 32.1667C10 44.1333 19.7 53.8333 31.6667 53.8333C37.0333 53.8333 41.9667 51.8667 45.7667 48.6L46.6667 49.5333V52.1667L63.3333 68.8L68.3 63.8333L51.6667 47.1667ZM31.6667 47.1667C23.3667 47.1667 16.6667 40.4667 16.6667 32.1667C16.6667 23.8667 23.3667 17.1667 31.6667 17.1667C39.9667 17.1667 46.6667 23.8667 46.6667 32.1667C46.6667 40.4667 39.9667 47.1667 31.6667 47.1667Z" fill="white"/>
</g>
<defs>
<clipPath id="clip0_260_5902">
<rect width="80" height="80" fill="white" transform="translate(0 0.5)"/>
</clipPath>
</defs>
</svg>
